Patient4_TMGait_0pt2_01_left_12_EMG.mot
version=1
nRows=33
nColumns=33
inDegrees=no
endheader
time	1LAddLong	2LGlutMax	3LGlutMed	4LIliopsoas	5LSemiMemb	6LBicFemLong	7LRecFem	8LVastMed	9LVastLat	10LGasMed	11LTibAnt	12lTibPost	13LPeroneusLong	14LSol	15LExtDigLong	16LFlexDigLong	17RAddLong	18RGlutMax	19RGlutMed	20RIliopsoas	21RSemiMemb	22RBicFemLong	23RRecFem	24RVastMed	25RVastLat	26RGasMed	27RTibAnt	28RTibPost	29RPeroneusLong	30RSol	31RExtDigLong	32RFlexDigLong
27.832	0.00473	0.049133	0.11948	0.009918	0.074463	0.017548	0.16785	-0.01236	-0.24872	-0.053101	-0.14267	0.002289	0.044098	0.027161	0.59738	0.016632	0.007629	-0.008087	-0.074463	-0.1088	0.007172	0.03479	0.052643	-0.035248	-0.028839	-0.001526	-0.046082	-0.004883	0.074463	0.088654	-0.000305	-0.01297
27.833	0.008545	0.07843	0.073547	0.00473	0.001831	0.033112	0.098572	-0.000305	-0.21744	-0.035553	0.019226	0.013123	-0.032196	0.076599	0.037537	0.007935	0.013733	0.017242	-0.17166	-0.16464	0.004883	-0.019226	-0.011139	-0.019073	-0.00351	-0.006714	-0.017548	-0.014954	0.30243	0.12604	-0.004883	-0.014343
27.834	0.014038	0.051727	0.10269	0.000916	-0.004578	0.045776	-0.023041	0.021362	-0.094147	-0.027771	-0.058746	0	0.036469	0.094452	-0.17929	0.007019	0.006714	0.012054	-0.10086	-0.16174	0.025482	-0.09903	-0.092468	0.033722	0.037689	-0.049744	-0.034485	-0.018311	0.29617	0.074463	-0.003357	-0.010834
27.835	0.013275	0.068665	0.062103	-0.001373	0.007019	0.071106	-0.14862	0.018463	0.054169	-0.016785	-0.015259	0.003815	0.11108	0.056152	-0.46967	0.008698	0.006866	0.020142	-0.040588	-0.018921	-0.006714	-0.17807	0.000916	-0.010223	0.028076	-0.044861	-0.025635	-0.000153	0.019226	0.079651	-0.001221	-0.006714
27.836	0.018311	0.093994	0.01709	0.001831	-0.018768	0.053864	-0.16251	0.021057	0.20172	0.017395	0.14099	0.003052	0.04303	-0.02533	-0.31921	-0.017395	-0.001526	-0.021057	-0.10819	0.073242	-0.007172	-0.074615	0.032043	-0.010834	0.010376	0.039978	0.020447	0.002594	-0.55405	-0.094299	-0.004883	-0.009003
27.837	0.020752	0.09903	0.018005	0.006409	0.015869	0.028229	-0.036011	0.007782	0.22583	0.016937	0.041962	0.003662	-0.000916	-0.00885	-0.088806	-0.007782	0.010529	0.016632	-0.072784	0.15137	-0.045471	0.08316	0.028229	-0.031281	-0.007935	0.037537	0.041199	-0.048676	-0.4567	-0.38681	-0.002441	0.000458
27.838	0.011749	0.10941	0.057373	0.005798	0.033722	0.040283	0.003052	-0.00412	0.085449	0.027313	-0.080261	0.006409	0.015106	-0.0354	0.18845	-0.003052	0.018768	0.010223	-0.052338	0.12131	0.015106	0.159	0.036926	-0.021973	-0.016479	0.025177	0.004883	-0.27298	-0.003357	-0.074463	-0.001984	-0.010376
27.839	0.026398	0.11932	0.072937	-0.000153	0.015259	0.06546	-0.016327	-0.015259	0.077209	0.028839	-0.17502	-0.00061	-0.033417	-0.15381	-0.016174	0	0.011292	-0.037842	-0.023193	-0.020752	0.00824	0.063782	0.025635	-0.029602	-0.006866	-0.009155	0.041199	0.057678	0.064392	0.057831	-0.001526	-0.00824
27.84	0.013733	0.010681	-0.057983	-0.005798	0.012512	-0.071259	-0.081635	-0.015411	0.075684	0.027924	-0.12909	0.00473	-0.074921	-0.1207	0.013275	0.005188	0.018616	-0.016785	-0.056152	-0.11551	0.060272	-0.04715	-0.018921	-0.006256	0.001526	-0.003662	0.037842	0.26566	0.5188	0.17014	-0.00351	-0.010529
27.841	0.010223	-0.00885	-0.076294	-0.005188	0.007935	-0.082397	-0.085449	-0.003815	0.041809	0.013428	0.037842	0.003815	0.00473	-0.072937	0.1442	0.007629	0.025177	0.035858	-0.000458	-0.085754	0.036774	-0.080109	0.056	-0.02594	-0.012817	0.016022	0.012054	0.068665	0.58563	0.18753	-0.005188	-0.012512
27.842	-0.001221	-0.023041	-0.12054	0.002747	0.002747	-0.002289	-0.065155	0.010986	0.11383	-0.003052	0.25024	-0.003204	0.016022	0.000458	0.13306	0.009308	0.002441	0.001068	-0.019379	0.10452	-0.058289	-0.13458	0.017548	0.025482	-0.002289	-0.005646	-0.014191	0.033569	0.45578	0.22659	-0.003662	-0.00946
27.843	-0.002441	-0.053558	-0.071716	-0.012207	-0.010223	0.017242	-0.047913	0.008392	0.064087	-0.046234	0.27512	0.000763	0.068817	0.083618	0.060577	0.003662	0.001984	-0.02533	0.079193	0.11948	-0.16449	-0.15976	0.059967	0.002747	-0.007477	-0.014496	-0.02594	-0.00412	-0.054932	0.033722	-0.009766	-0.011139
27.844	-0.002899	-0.084534	-0.054321	0.001526	0.005341	0.075226	-0.013275	0.000763	-0.14481	-0.054779	0.045166	0.004883	0.081024	0.18677	-0.14832	0.005341	0.005493	0.0177	0.043488	0.15457	0.067139	-0.097809	0.07431	-0.045776	-0.008087	-0.006104	0.020905	-0.12161	-0.76538	-0.041046	-0.005341	-0.012665
27.845	0.003357	-0.1207	-0.054932	0.011749	0.038147	0.10941	0.014954	0.016479	-0.45502	0.021667	0.10544	0.00412	-0.081635	0.12878	0.95276	-0.006256	0.016174	0.021667	-0.080109	0.087128	0.066376	-0.011749	0.054321	-0.063019	-0.02243	0.003204	-0.031891	0.004272	0.20493	-0.002899	-0.005188	-0.003967
27.846	-0.006104	-0.103	0.049591	-0.001373	-0.005646	0.10162	0.024719	0.019379	-0.3804	0.025482	0.097656	-0.001984	-0.088348	0.1294	0.20691	-0.001984	0.014343	0.036163	-0.014496	0.084991	0.056763	0.23926	0.051727	-0.016632	-0.007935	-0.000305	-0.022736	-0.14099	0.53238	-0.011749	-0.008545	-0.003967
27.847	-0.011444	-0.15564	0.047913	0.004883	-0.06134	0.10742	0.070038	0.018311	-0.23834	0.011292	-0.006104	0.000305	-0.039368	0.063629	-0.36667	-0.005646	0.010529	0.033569	0.065155	0.051422	0.10437	0.15793	0.041046	0.037994	0.017853	0.00351	0.00061	0.10208	-0.55588	-0.025635	-0.005188	-0.011902
27.848	-0.007477	-0.15625	-0.005341	0.005951	-0.072784	0.10162	0.10376	0.020905	-0.16663	-0.015869	-0.045624	-0.007935	-0.01709	-0.018616	-0.75134	0.007172	0.019989	0.035706	0.040588	-0.01236	0.053253	-0.06012	0.046387	0.016479	-0.003052	0.002899	0.046387	0.083466	-1.2697	-0.006714	-0.004883	0.001678
27.849	-0.10452	-0.15991	-0.010071	0.010681	-0.07782	0.018005	0.12116	0.019684	-0.088959	-0.002136	-0.13031	0.005188	-0.003662	-0.096436	-0.3949	-0.003815	0.010223	0.089417	-0.026855	0.004425	-0.037231	-0.066528	0.062103	-0.048523	-0.009003	0.002441	0.063629	0.014038	-0.53665	0.02594	-0.005188	-0.012512
27.85	-0.012817	-0.17944	0.028229	0.000458	-0.009308	0.004425	0.035706	0.003204	-0.039368	-0.003052	-0.10178	0.005798	-0.011749	-0.12665	-0.2211	-0.004425	0.017395	0.097809	-0.009155	0.013733	-0.16571	0.010986	0.077057	-0.059967	0.004883	0.001984	0.027924	0.011749	0.034027	-0.012817	-0.003967	-0.005035
27.851	-0.002594	-0.16739	-0.014801	0.007172	0.037384	-0.017548	-0.006561	0.008087	0.013733	-0.005951	-0.10101	0.002289	0.00885	-0.099792	-0.06073	0.000153	0.027008	0.071259	0.28564	-0.00473	-0.26764	0.058594	0.062256	-0.11215	-0.016327	0.001373	-0.006409	0.000305	1.2085	-0.093842	-0.003052	0.002594
27.852	-0.009766	-0.13931	-0.022278	-0.001526	-0.036774	0.013275	-0.061035	0.018616	0.057068	-0.002289	-0.090942	0.005951	-0.005951	-0.015106	0.008545	0.004578	-0.011139	0.071411	0.50827	0.000458	0.13611	-0.007019	0.016785	-0.059509	-0.005493	-0.001068	-0.004425	-0.005035	0.84824	-0.088806	-0.001526	0.004578
27.853	-0.00946	-0.0914	0.054474	0.000763	-0.10483	0.082855	-0.041199	0.033569	0.058899	0.009766	-0.069275	0.002594	-0.005188	-0.062561	0.050964	-0.007019	-0.024414	0.03479	0.49118	0.001068	0.21439	-0.05249	0.000763	-0.012207	-0.01236	-0.003967	0.067139	-0.014801	0.41763	-0.07019	-0.005798	0.000763
27.854	-0.005951	-0.10956	0.018158	0.009766	-0.1532	0.072784	-0.028839	0.014038	0.038757	-0.012207	-0.02182	0.005798	0.021057	-0.055847	0.12161	-0.006104	-0.00824	-0.001373	0.29785	0.016327	0.12436	-0.085297	-0.018921	-0.03952	-0.026093	-0.011444	0.17395	-0.016785	-0.34622	-0.054321	-0.001526	-0.005798
27.855	0.007935	-0.089417	0.006104	0.003662	-0.084839	0.007324	-0.009003	0.012665	0.050354	-0.005035	0.04364	0.00412	0.006866	0.018158	0.082703	0.001831	0.004425	0.043945	-0.094604	-0.12146	0.10346	-0.10529	-0.0383	-0.018768	0.011444	-0.005951	0.20874	-0.014801	-0.90378	-0.070496	-0.006256	0.005493
27.856	0.018768	-0.10376	-0.007477	0.003357	0.046844	-0.041046	-0.014343	-0.018616	0.046539	0.029755	0.046234	0.006409	-0.028687	0.061646	-0.011597	0.005951	-0.004425	-0.012665	-0.25909	-0.10132	0.063324	-0.071564	-0.045624	0.092163	0.03418	0.010071	0.18631	-0.01236	-0.76187	-0.10178	-0.007019	0.007782
27.857	0.02243	-0.087128	-0.023651	-0.012665	0.085297	-0.11459	-0.014038	-0.028687	0.046539	0.028839	0.040436	0.00412	-0.055084	0.016022	-0.072937	0.004272	0.005188	-0.02533	-0.14557	-0.000763	0.006104	-0.047913	0.040436	0.071716	-0.013123	0.011444	-0.037842	-0.00946	-0.17014	-0.12283	-0.001831	0.00061
27.858	0.022736	-0.094757	-0.028839	-0.011597	0.096588	-0.1239	-0.029755	-0.016174	0.050049	0.015106	0.023041	0.007629	-0.02182	-0.011902	-0.01358	0.000458	0.011292	0.020752	-0.092621	0.073395	-0.048981	-0.042114	0.017853	-0.003815	-0.053101	0.015411	-0.14664	-0.000763	-0.1973	-0.21027	-0.001373	0.006714
27.859	0.014801	-0.050812	-0.016479	-0.004272	0.088196	-0.081329	0.03891	-0.000153	0.038757	0.016174	0.027618	0.011139	-0.00824	-0.03479	0.080109	-0.001373	0.028229	0.035706	-0.066223	-0.012512	-0.042419	-0.019989	-0.076141	-0.029755	-0.07843	-0.000916	-0.03891	0.004272	0.45944	-0.13443	-0.001831	-0.002594
27.86	0.025787	-0.053253	-0.027771	-0.006714	0.079956	0.000458	0.047913	0.001678	0.040894	0.013428	0.028687	0.003662	-0.015564	-0.034485	0.12848	-0.005646	0.027618	0.027313	-0.00351	-0.070953	-0.1329	-0.005188	-0.004578	-0.025635	-0.048218	-0.003357	-0.000305	-0.030212	0.91766	-0.26215	-0.002594	-0.008545
27.861	0.027771	-0.036163	-0.095062	-0.007782	0.035858	0.055542	0.00946	0.002747	0.053864	0.005951	0.019836	0.004883	-0.022583	0.019226	0.11078	0.010681	0.006104	0.020142	-0.014954	-0.1004	-0.23743	0.059357	-0.03952	-0.063324	-0.034637	-0.001984	0.036621	-0.22369	0.37415	-0.33722	-0.004272	-0.003052
27.862	0.028381	-0.013733	-0.10071	-0.004272	0.028381	0.081329	-0.013885	0.001373	0.15289	0.003815	0.024261	0.005188	-0.017395	0.016022	0.1033	0.006561	0.008087	0.030975	0.042419	-0.037079	-0.090027	0.09613	-0.064545	-0.083313	-0.026245	-0.024872	0.046387	0.011749	-0.76874	-0.11093	-0.005493	-0.005035
27.863	0.032349	-0.021057	-0.082397	-0.009918	0.003967	0.088348	-0.024872	0.021973	0.20218	0.006256	0.020142	0.001068	-0.020752	0.011292	0.055084	0.002899	-0.017395	0.019226	0.15213	0.12695	0.30304	0.13306	-0.058441	-0.00351	0.033417	-0.043945	-0.041809	0.15091	-0.41138	0.2533	-0.003052	0.002289
27.864	0.025787	-0.01709	-0.06485	-0.017853	-0.036621	0.078583	-0.031738	0.029449	0.23697	0.012054	0.01709	0.008545	-0.01236	-0.011902	0.019989	0.000458	0	0.016174	0.12146	0.1265	0.33981	0.1738	-0.005035	0.017548	0.020752	-0.045776	-0.12268	-0.008698	1.0144	0.10483	-0.00351	-0.00351
